<svg width="639.0124999999999px" height="152.00498046875px" xmlns="http://www.w3.org/2000/svg" viewBox="-69.50624999999997 -1.0024902343750028 639.0124999999999 152.00498046875" style="background: rgb(253, 253, 253);" preserveAspectRatio="xMidYMid"><defs><linearGradient id="editing-outline-gradient" x1="-0.41354545764260087" x2="1.4135454576426008" y1="0.09326335692419985" y2="0.9067366430758002"><stop offset="0" stop-color="#00101a"></stop><stop offset="1" stop-color="#000408"></stop></linearGradient><filter id="editing-outline" x="-100%" y="-100%" width="300%" height="300%"><feMorphology in="SourceGraphic" operator="dilate" radius="2" result="outline"></feMorphology><feComposite operator="out" in="outline" in2="SourceAlpha"></feComposite></filter></defs><g filter="url(#editing-outline)"><g transform="translate(19.439990043640137, 105.375)"><path d="M47.62-28.36L47.62 0L39.51 0L39.51-28.36L39.51-28.36Q39.51-32.55 37.93-36.23L37.93-36.23L37.93-36.23Q36.35-39.91 33.60-42.66L33.60-42.66L33.60-42.66Q30.85-45.40 27.15-47.01L27.15-47.01L27.15-47.01Q23.45-48.61 19.26-48.61L19.26-48.61L14.91-48.61L14.91 0L6.80 0L6.80-56.72L19.26-56.72L19.26-56.72Q23.14-56.72 26.72-55.71L26.72-55.71L26.72-55.71Q30.30-54.70 33.42-52.88L33.42-52.88L33.42-52.88Q36.54-51.06 39.12-48.53L39.12-48.53L39.12-48.53Q41.69-46.00 43.58-42.91L43.58-42.91L43.58-42.91Q45.44-46.00 48.01-48.53L48.01-48.53L48.01-48.53Q50.59-51.06 53.71-52.88L53.71-52.88L53.71-52.88Q56.83-54.70 60.41-55.71L60.41-55.71L60.41-55.71Q63.99-56.72 67.87-56.72L67.87-56.72L80.37-56.72L80.37 0L72.26 0L72.26-48.61L67.87-48.61L67.87-48.61Q63.68-48.61 60.00-47.01L60.00-47.01L60.00-47.01Q56.32-45.40 53.57-42.66L53.57-42.66L53.57-42.66Q50.82-39.91 49.22-36.23L49.22-36.23L49.22-36.23Q47.62-32.55 47.62-28.36L47.62-28.36ZM103.11-54.66L103.11-54.66L103.11-54.66Q103.11-53.39 102.63-52.31L102.63-52.31L102.63-52.31Q102.16-51.22 101.33-50.39L101.33-50.39L101.33-50.39Q100.50-49.56 99.39-49.08L99.39-49.08L99.39-49.08Q98.28-48.61 97.06-48.61L97.06-48.61L97.06-48.61Q95.79-48.61 94.68-49.08L94.68-49.08L94.68-49.08Q93.58-49.56 92.75-50.39L92.75-50.39L92.75-50.39Q91.92-51.22 91.44-52.31L91.44-52.31L91.44-52.31Q90.97-53.39 90.97-54.66L90.97-54.66L90.97-54.66Q90.97-55.89 91.44-56.99L91.44-56.99L91.44-56.99Q91.92-58.10 92.75-58.93L92.75-58.93L92.75-58.93Q93.58-59.76 94.68-60.26L94.68-60.26L94.68-60.26Q95.79-60.75 97.06-60.75L97.06-60.75L97.06-60.75Q98.28-60.75 99.39-60.26L99.39-60.26L99.39-60.26Q100.50-59.76 101.33-58.93L101.33-58.93L101.33-58.93Q102.16-58.10 102.63-56.99L102.63-56.99L102.63-56.99Q103.11-55.89 103.11-54.66ZM101.09-44.53L101.09 0L92.98 0L92.98-44.53L101.09-44.53ZM120.87-36.47L120.87 0L112.76 0L112.76-44.53L143.13-44.53L143.13-44.53Q147.72-44.53 151.76-42.77L151.76-42.77L151.76-42.77Q155.79-41.01 158.80-37.99L158.80-37.99L158.80-37.99Q161.80-34.96 163.54-30.91L163.54-30.91L163.54-30.91Q165.28-26.85 165.28-22.27L165.28-22.27L165.28 0L157.17 0L157.17-22.27L157.17-22.27Q157.17-25.19 156.07-27.76L156.07-27.76L156.07-27.76Q154.96-30.34 153.06-32.25L153.06-32.25L153.06-32.25Q151.16-34.17 148.61-35.30L148.61-35.30L148.61-35.30Q146.06-36.43 143.13-36.47L143.13-36.47L120.87-36.47ZM186.32-54.66L186.32-54.66L186.32-54.66Q186.32-53.39 185.85-52.31L185.85-52.31L185.85-52.31Q185.37-51.22 184.54-50.39L184.54-50.39L184.54-50.39Q183.71-49.56 182.61-49.08L182.61-49.08L182.61-49.08Q181.50-48.61 180.27-48.61L180.27-48.61L180.27-48.61Q179.01-48.61 177.90-49.08L177.90-49.08L177.90-49.08Q176.79-49.56 175.96-50.39L175.96-50.39L175.96-50.39Q175.13-51.22 174.66-52.31L174.66-52.31L174.66-52.31Q174.18-53.39 174.18-54.66L174.18-54.66L174.18-54.66Q174.18-55.89 174.66-56.99L174.66-56.99L174.66-56.99Q175.13-58.10 175.96-58.93L175.96-58.93L175.96-58.93Q176.79-59.76 177.90-60.26L177.90-60.26L177.90-60.26Q179.01-60.75 180.27-60.75L180.27-60.75L180.27-60.75Q181.50-60.75 182.61-60.26L182.61-60.26L182.61-60.26Q183.71-59.76 184.54-58.93L184.54-58.93L184.54-58.93Q185.37-58.10 185.85-56.99L185.85-56.99L185.85-56.99Q186.32-55.89 186.32-54.66ZM184.31-44.53L184.31 0L176.20 0L176.20-44.53L184.31-44.53ZM239.88-32.39L239.88-24.28L195.34-24.28L195.34-32.39L239.88-32.39ZM312.57-56.72L312.65-56.72L312.57-28.36L312.57-28.36Q312.57-24.40 311.56-20.78L311.56-20.78L311.56-20.78Q310.55-17.17 308.71-14.02L308.71-14.02L308.71-14.02Q306.87-10.88 304.28-8.29L304.28-8.29L304.28-8.29Q301.69-5.70 298.55-3.86L298.55-3.86L298.55-3.86Q295.40-2.02 291.81-1.01L291.81-1.01L291.81-1.01Q288.21 0 284.29 0L284.29 0L278.32 0L278.32 0Q274.40 0 270.78-1.01L270.78-1.01L270.78-1.01Q267.17-2.02 264.02-3.88L264.02-3.88L264.02-3.88Q260.88-5.73 258.31-8.33L258.31-8.33L258.31-8.33Q255.74-10.92 253.90-14.06L253.90-14.06L253.90-14.06Q252.06-17.20 251.05-20.82L251.05-20.82L251.05-20.82Q250.04-24.44 250.04-28.36L250.04-28.36L250.04-56.72L258.15-56.72L258.15-28.36L258.15-28.36Q258.15-24.17 259.73-20.47L259.73-20.47L259.73-20.47Q261.31-16.77 264.06-14.02L264.06-14.02L264.06-14.02Q266.81-11.27 270.49-9.69L270.49-9.69L270.49-9.69Q274.17-8.11 278.32-8.11L278.32-8.11L284.29-8.11L284.29-8.11Q288.48-8.11 292.16-9.69L292.16-9.69L292.16-9.69Q295.84-11.27 298.57-14.02L298.57-14.02L298.57-14.02Q301.30-16.77 302.88-20.47L302.88-20.47L302.88-20.47Q304.46-24.17 304.46-28.36L304.46-28.36L304.46-56.72L312.57-56.72ZM372.77-16.45L389.77 0L378.82 0L361.81-16.22L336.97-16.22L336.97-24.21L369.52-24.21L369.52-24.21Q372.05-24.21 374.27-25.17L374.27-25.17L374.27-25.17Q376.48-26.14 378.13-27.80L378.13-27.80L378.13-27.80Q379.77-29.47 380.72-31.70L380.72-31.70L380.72-31.70Q381.67-33.93 381.67-36.47L381.67-36.47L381.67-36.47Q381.67-39.00 380.72-41.21L380.72-41.21L380.72-41.21Q379.77-43.43 378.13-45.07L378.13-45.07L378.13-45.07Q376.48-46.71 374.27-47.66L374.27-47.66L374.27-47.66Q372.05-48.61 369.52-48.61L369.52-48.61L332.42-48.61L332.42 0L324.32 0L324.32-56.72L369.52-56.72L369.52-56.72Q373.72-56.72 377.39-55.11L377.39-55.11L377.39-55.11Q381.07-53.51 383.82-50.76L383.82-50.76L383.82-50.76Q386.57-48.01 388.17-44.34L388.17-44.34L388.17-44.34Q389.77-40.66 389.77-36.47L389.77-36.47L389.77-36.47Q389.77-32.67 388.47-29.29L388.47-29.29L388.47-29.29Q387.16-25.91 384.87-23.24L384.87-23.24L384.87-23.24Q382.57-20.57 379.47-18.81L379.47-18.81L379.47-18.81Q376.37-17.05 372.77-16.45L372.77-16.45ZM454.32-8.11L454.32 0L400.14 0L400.14-56.72L408.24-56.72L408.24-8.11L454.32-8.11Z" fill="url(#editing-outline-gradient)"></path></g></g><style>text {
  font-size: 64px;
  font-family: Arial Black;
  dominant-baseline: central;
  text-anchor: middle;
}</style></svg>